<svg width="671" height="570" viewBox="0 0 671 570" fill="none" xmlns="http://www.w3.org/2000/svg">
<g clip-path="url(#clip0)">
<path d="M671 285C671.091 338.198 655.187 390.348 625.102 435.496C624.061 437.059 622.998 438.616 621.926 440.158C619.935 443.022 617.891 445.851 615.794 448.644C615.794 448.651 615.786 448.651 615.779 448.658C614.525 450.335 613.241 451.999 611.949 453.647C610.292 455.751 608.605 457.841 606.888 459.895C606.698 460.129 606.5 460.364 606.303 460.598C603.301 464.187 600.208 467.706 597.025 471.153C596.683 471.529 596.333 471.899 595.976 472.275C595.436 472.865 594.882 473.448 594.327 474.031C577.733 491.548 558.898 507.09 538.247 520.306C535.496 522.076 532.71 523.798 529.889 525.473C529.189 525.892 528.49 526.305 527.784 526.717C527.571 526.852 527.358 526.973 527.145 527.094C526.393 527.534 525.641 527.975 524.881 528.401C523.369 529.268 521.841 530.121 520.314 530.96C519.546 531.386 518.779 531.799 518.004 532.211C517.999 532.218 517.992 532.225 517.984 532.229C517.976 532.234 517.968 532.238 517.958 532.239L517.943 532.246C516.021 533.284 514.09 534.3 512.138 535.288C508.657 537.065 505.142 538.778 501.59 540.427C500.709 540.839 499.82 541.244 498.931 541.649C495.975 542.992 492.996 544.286 489.994 545.53C464.662 556.074 437.898 563.306 410.457 567.022C406.088 567.619 401.693 568.126 397.273 568.543C395.586 568.699 393.899 568.849 392.212 568.977C391.513 569.033 390.806 569.083 390.107 569.133C382.242 569.716 374.302 570.005 366.285 570C357.554 570 348.911 569.659 340.357 568.977C338.541 568.834 336.728 568.678 334.917 568.507C332.06 568.237 329.215 567.927 326.383 567.576C324.955 567.406 323.531 567.221 322.113 567.022C306.595 564.926 291.277 561.697 276.299 557.363C267.811 554.918 259.485 552.137 251.321 549.019C248.715 548.024 246.116 546.994 243.548 545.935C241.147 544.947 238.763 543.928 236.397 542.879C236.322 542.857 236.251 542.826 236.184 542.786C235.66 542.559 235.136 542.324 234.612 542.09C221.574 536.241 209.001 529.527 196.99 521.998C193.137 519.588 189.35 517.098 185.629 514.528C182.628 512.46 179.669 510.34 176.754 508.167C162.229 497.369 148.787 485.356 136.594 472.276C135.735 471.359 134.892 470.442 134.048 469.518C133.395 468.8 132.749 468.082 132.11 467.357C128.691 463.534 125.385 459.625 122.194 455.63C121.753 455.083 121.32 454.529 120.887 453.974C118.85 451.409 116.867 448.805 114.937 446.164C113.478 444.181 112.047 442.179 110.644 440.158C75.7157 389.783 58.6818 330.382 61.9702 270.42C65.2587 210.459 88.7015 152.999 128.957 106.232C130.788 104.107 132.652 102.008 134.55 99.9348C190.432 38.77 273.518 0 366.285 0C474.744 0 569.973 52.9986 623.963 132.82C626.774 136.956 629.464 141.169 632.033 145.457C657.66 188.054 671.083 236.122 671 285Z" fill="#F2F2F2"/>
<path d="M513.84 508.7C509.759 519.276 505.676 529.851 501.59 540.427C500.709 540.839 499.82 541.244 498.931 541.649C495.975 542.992 492.996 544.286 489.994 545.53C489.603 544.577 489.38 543.571 489.333 542.552C489.174 538.309 491.225 534.307 492.335 530.171C492.373 530.05 492.403 529.922 492.434 529.801C493.975 523.676 493.263 517.243 490.412 511.543C488.695 508.146 486.233 505.054 485.161 501.429C482.798 493.412 489.06 484.13 497.821 482.681C506.575 481.224 515.869 487.919 516.598 496.213C516.978 500.484 515.397 504.67 513.84 508.7Z" fill="#E4E4E4"/>
<path d="M496.613 537.57C495.184 535.103 493.758 532.637 492.335 530.171C488.695 523.86 485.063 517.556 481.362 511.273C480.374 509.596 479.371 507.918 478.315 506.255C475.664 501.888 472.534 497.791 468.976 494.031C468.163 493.185 467.304 492.368 466.415 491.593C465.86 491.096 465.29 490.612 464.705 490.15C461.4 487.521 456.939 483.988 452.289 485.396C451.115 485.772 449.985 486.258 448.915 486.845C447.691 487.492 446.498 488.217 445.305 488.857C443.011 490.093 440.706 491.306 438.39 492.496C437.349 493.036 436.303 493.571 435.252 494.102C433.862 494.806 432.468 495.502 431.073 496.191C430.358 496.547 429.637 496.888 428.915 497.229C427.471 497.911 426.027 498.594 424.652 499.375C421.919 500.915 419.544 502.953 417.668 505.367C417.304 505.836 416.954 506.319 416.635 506.817C416.216 507.46 415.836 508.124 415.495 508.807C415.26 509.269 415.039 509.731 414.842 510.2C412.973 514.694 412.712 519.634 414.097 524.279V524.286C414.188 524.606 414.287 524.919 414.401 525.232C414.583 525.757 414.788 526.283 415.016 526.795C416.605 530.406 419.31 533.121 422.205 535.807C422.509 536.084 422.82 536.369 423.124 536.646C426.954 540.143 430.802 543.62 434.667 547.079C439.295 551.216 443.907 555.402 448.619 559.474C462.757 555.78 476.586 551.119 489.994 545.53C492.996 544.286 495.975 542.993 498.931 541.649C498.178 540.278 497.396 538.92 496.613 537.57Z" fill="#E4E4E4"/>
<path d="M441.017 468.567L434.767 459.499C434.573 459.335 434.34 459.22 434.086 459.163C433.833 459.105 433.568 459.108 433.317 459.172C433.065 459.235 432.834 459.356 432.646 459.524C432.457 459.692 432.316 459.902 432.237 460.134L427.302 473.809C423.811 474.761 420.511 476.242 417.533 478.195L411.923 468.979C411.737 468.806 411.507 468.679 411.254 468.611C411.002 468.543 410.735 468.535 410.479 468.59C410.222 468.644 409.985 468.758 409.788 468.921C409.592 469.085 409.442 469.292 409.355 469.524L406.109 481.84C402.157 487.408 400.217 494.014 400.572 500.689C400.927 507.364 403.559 513.757 408.082 518.931C412.605 524.105 418.782 527.787 425.706 529.438C432.63 531.089 439.938 530.622 446.557 528.105C453.177 525.588 458.76 521.154 462.489 515.452C466.217 509.751 467.894 503.082 467.275 496.424C466.655 489.766 463.771 483.469 459.046 478.455C454.321 473.442 448.002 469.976 441.017 468.567V468.567Z" fill="#E4E4E4"/>
<path d="M437.876 507.54C437.209 507.874 436.428 507.947 435.703 507.742C434.979 507.538 434.371 507.074 434.013 506.451C433.962 506.361 433.951 506.257 433.982 506.161C434.014 506.064 434.085 505.983 434.18 505.935C434.275 505.888 434.386 505.877 434.489 505.906C434.593 505.935 434.68 506.001 434.731 506.09C434.987 506.535 435.421 506.866 435.938 507.012C436.455 507.157 437.013 507.105 437.489 506.866C437.965 506.627 438.32 506.221 438.476 505.738C438.632 505.254 438.577 504.733 438.322 504.287C438.272 504.198 438.261 504.094 438.292 503.998C438.324 503.901 438.394 503.82 438.49 503.772C438.585 503.725 438.696 503.714 438.799 503.743C438.903 503.772 438.989 503.838 439.041 503.927C439.398 504.551 439.476 505.281 439.257 505.959C439.039 506.636 438.542 507.205 437.876 507.54V507.54Z" fill="white"/>
<path d="M434.89 501.933C436.477 501.137 437.498 500.028 437.17 499.457C436.843 498.887 435.291 499.069 433.704 499.866C432.117 500.662 431.096 501.771 431.424 502.341C431.751 502.912 433.303 502.729 434.89 501.933Z" fill="white"/>
<path d="M418.023 502.9C418.238 501.927 418.678 501.01 419.313 500.213C419.949 499.416 420.763 498.76 421.699 498.29C422.636 497.82 423.671 497.548 424.732 497.494C425.792 497.439 426.853 497.603 427.839 497.973C428.335 496.555 428.37 495.031 427.94 493.594C427.51 492.157 426.634 490.872 425.423 489.901C424.212 488.93 422.72 488.316 421.136 488.138C419.552 487.959 417.947 488.224 416.524 488.899C415.101 489.574 413.924 490.629 413.142 491.929C412.36 493.23 412.007 494.718 412.129 496.206C412.252 497.693 412.843 499.114 413.828 500.288C414.813 501.461 416.148 502.335 417.665 502.799V502.799C417.783 502.835 417.903 502.869 418.023 502.9Z" fill="white"/>
<path d="M420.433 500.161C421.966 500.161 423.208 498.999 423.208 497.566C423.208 496.133 421.966 494.971 420.433 494.971C418.901 494.971 417.658 496.133 417.658 497.566C417.658 498.999 418.901 500.161 420.433 500.161Z" fill="#3F3D56"/>
<path d="M437.23 493.561C437.445 492.587 437.885 491.67 438.521 490.873C439.156 490.077 439.97 489.42 440.906 488.95C441.843 488.481 442.878 488.209 443.939 488.154C445 488.099 446.06 488.263 447.046 488.634C447.542 487.216 447.577 485.692 447.147 484.255C446.717 482.818 445.841 481.533 444.63 480.561C443.419 479.59 441.927 478.976 440.343 478.798C438.759 478.62 437.154 478.885 435.731 479.56C434.308 480.235 433.131 481.289 432.349 482.59C431.567 483.89 431.214 485.378 431.337 486.866C431.459 488.354 432.05 489.774 433.035 490.948C434.02 492.122 435.356 492.996 436.872 493.459V493.459C436.99 493.496 437.11 493.529 437.23 493.561Z" fill="white"/>
<path d="M440.659 490.677C442.191 490.677 443.433 489.515 443.433 488.082C443.433 486.648 442.191 485.486 440.659 485.486C439.126 485.486 437.884 486.648 437.884 488.082C437.884 489.515 439.126 490.677 440.659 490.677Z" fill="#3F3D56"/>
<path d="M454.583 487.902L445.109 496.932L446.066 497.809L455.54 488.78L454.583 487.902Z" fill="white"/>
<path d="M457.594 492.271L446.147 499.011L446.861 500.072L458.308 493.332L457.594 492.271Z" fill="white"/>
<path d="M424.785 507.133L411.502 509.524L411.756 510.755L425.038 508.363L424.785 507.133Z" fill="white"/>
<path d="M426.064 509.091L413.73 514.286L414.281 515.429L426.614 510.234L426.064 509.091Z" fill="white"/>
<path d="M34.919 316.333C8.93818 294.464 -6.79345 259.685 2.87443 228.269C24.6923 257.381 56.8167 278.337 93.5637 287.428C107.749 290.887 123.912 293.351 132.542 304.435C137.912 311.331 139.159 320.444 137.888 328.891C136.616 337.339 133.063 345.318 129.543 353.188L129.729 355.31C95.419 349.066 60.8999 338.203 34.919 316.333Z" fill="#E6E6E6"/>
<path d="M3.60016 228.368C10.2034 254.421 25.7484 278.67 47.5606 296.072C52.2763 299.835 57.4101 303.267 63.1689 305.487C68.8 307.61 74.9361 308.284 80.9398 307.438C86.5546 306.755 92.2133 305.449 97.9078 306.054C103.91 306.693 108.925 309.838 112.428 314.368C116.714 319.91 118.615 326.562 120.233 333.127C122.029 340.417 123.772 348.015 128.917 353.973C129.541 354.695 128.307 355.557 127.684 354.837C118.732 344.471 119.956 330.123 113.472 318.669C110.447 313.324 105.681 308.8 99.1169 307.677C93.3768 306.696 87.5403 308.038 81.8616 308.776C75.8989 309.55 70.13 309.363 64.4095 307.473C58.5578 305.54 53.2696 302.288 48.4717 298.655C37.6576 290.34 28.3084 280.487 20.7666 269.457C12.0847 256.912 5.76104 243.071 2.06934 228.532C1.84124 227.632 3.37354 227.474 3.60015 228.368L3.60016 228.368Z" fill="white"/>
<path d="M40.1515 290.766C36.4802 293.799 31.7755 295.513 26.8779 295.601C21.9802 295.69 17.2083 294.147 13.4145 291.248C12.649 290.659 13.5916 289.519 14.358 290.109C17.8855 292.814 22.3306 294.251 26.8912 294.16C31.4517 294.069 35.8273 292.456 39.2281 289.612C39.9679 288.995 40.8871 290.152 40.1515 290.766V290.766Z" fill="white"/>
<path d="M78.1416 308.135C78.8501 298.793 75.7677 289.544 69.5091 282.233C68.8883 281.509 70.1221 280.646 70.7421 281.369C77.2398 288.989 80.4266 298.62 79.6665 308.34C79.5934 309.267 78.0689 309.057 78.1416 308.135Z" fill="white"/>
<path d="M14.0993 256.597C15.7813 255.7 17.1988 254.426 18.2246 252.891C19.2503 251.355 19.8522 249.605 19.9761 247.798C20.0366 246.871 21.5611 247.082 21.501 248.002C21.3542 249.998 20.687 251.93 19.5577 253.63C18.4284 255.329 16.8714 256.743 15.0228 257.75C14.857 257.859 14.6533 257.904 14.453 257.877C14.2527 257.85 14.0709 257.753 13.9445 257.605C13.823 257.452 13.7712 257.26 13.8002 257.071C13.8291 256.882 13.9366 256.712 14.0993 256.597L14.0993 256.597Z" fill="white"/>
<path d="M111.376 184.071C111.356 184.651 111.336 185.23 111.326 185.818C111.097 193.613 111.546 201.413 112.669 209.141C112.745 209.74 112.832 210.346 112.927 210.941C115.843 229.532 122.424 247.454 132.334 263.798C136.285 270.299 140.758 276.508 145.715 282.374C152.562 290.474 160.675 298.747 164.159 308.211C164.534 309.194 164.844 310.199 165.087 311.218L132.483 354.933C132.356 354.998 132.239 355.07 132.111 355.135L130.894 356.936C130.616 356.65 130.334 356.348 130.056 356.062C129.894 355.897 129.739 355.722 129.577 355.557C129.471 355.444 129.365 355.33 129.263 355.234C129.228 355.196 129.193 355.158 129.168 355.127C129.065 355.031 128.981 354.931 128.89 354.842C127.308 353.158 125.736 351.46 124.175 349.749C124.164 349.742 124.164 349.742 124.161 349.726C112.297 336.662 101.495 322.557 93.3248 307.367C93.0792 306.91 92.8225 306.446 92.5918 305.969C88.9498 299.103 85.914 291.97 83.5146 284.642C82.2145 280.625 81.1327 276.549 80.2733 272.43C78.0746 261.782 77.6801 250.878 79.1045 240.116C81.9472 218.662 92.0942 198.298 109.998 185.069C110.456 184.731 110.907 184.402 111.376 184.071Z" fill="#E6E6E6"/>
<path d="M111.896 184.556C100.398 209.077 97.2001 237.191 103.414 263.369C104.757 269.029 106.646 274.66 109.816 279.675C112.945 284.541 117.411 288.535 122.749 291.24C127.671 293.857 133.031 296 137.188 299.69C141.569 303.58 143.548 308.915 143.429 314.505C143.284 321.343 140.52 327.725 137.586 333.878C134.328 340.71 130.828 347.758 131.101 355.412C131.134 356.34 129.594 356.334 129.56 355.408C129.085 342.09 139.299 331.324 141.495 318.527C142.52 312.556 141.627 306.26 137.108 301.667C133.157 297.651 127.632 295.436 122.624 292.827C117.364 290.088 112.879 286.69 109.528 281.96C106.1 277.121 103.971 271.547 102.479 265.944C99.1964 253.216 98.0741 240.084 99.1531 227.03C100.296 212.125 104.157 197.512 110.568 183.825C110.965 182.978 112.291 183.715 111.896 184.556L111.896 184.556Z" fill="white"/>
<path d="M100.914 254.96C96.0301 255.314 91.1705 254.033 87.203 251.346C83.2355 248.659 80.4186 244.74 79.2552 240.289C79.0231 239.388 80.5097 239.008 80.7421 239.911C81.8172 244.057 84.4416 247.707 88.1416 250.203C91.8416 252.698 96.3734 253.874 100.919 253.519C101.907 253.443 101.896 254.884 100.914 254.96Z" fill="white"/>
<path d="M120.066 290.221C126.645 283.161 130.138 274.04 129.847 264.678C129.817 263.751 131.358 263.757 131.388 264.683C131.671 274.426 128.016 283.91 121.152 291.243C120.497 291.942 119.415 290.916 120.066 290.221L120.066 290.221Z" fill="white"/>
<path d="M102.108 213.007C104.028 213.238 105.98 213.02 107.787 212.371C109.595 211.723 111.202 210.664 112.464 209.291C113.109 208.585 114.191 209.612 113.55 210.313C112.148 211.824 110.372 212.991 108.376 213.712C106.381 214.433 104.227 214.686 102.103 214.448C101.901 214.441 101.709 214.363 101.566 214.229C101.423 214.095 101.341 213.915 101.335 213.725C101.337 213.535 101.419 213.352 101.564 213.218C101.708 213.083 101.904 213.008 102.108 213.007V213.007Z" fill="white"/>
<path d="M409.215 186.986C413.744 163.557 406.217 136.972 385.67 122.918C386.991 148.78 378.489 174.245 361.668 194.808C355.15 202.717 347.02 210.878 347.337 220.859C347.534 227.07 351.161 232.836 355.921 237.17C360.682 241.503 366.532 244.614 372.312 247.677L373.217 248.977C389.992 231.069 404.686 210.415 409.215 186.986Z" fill="#E6E6E6"/>
<path d="M385.299 123.278C394.007 141.223 396.448 161.278 392.275 180.595C391.456 184.768 389.938 188.795 387.778 192.526C385.549 196.097 382.337 199.045 378.478 201.063C374.92 203.012 371.039 204.62 368.049 207.344C366.541 208.76 365.369 210.458 364.612 212.326C363.854 214.195 363.528 216.192 363.654 218.188C363.829 223.166 365.906 227.789 368.105 232.244C370.547 237.19 373.168 242.291 373.046 247.868C373.031 248.544 374.153 248.525 374.168 247.851C374.379 238.149 366.832 230.399 365.103 221.1C364.296 216.761 364.883 212.168 368.127 208.783C370.963 205.823 374.964 204.162 378.585 202.217C382.381 200.301 385.617 197.544 388.011 194.187C390.367 190.571 392.048 186.606 392.982 182.462C395.243 173.164 395.928 163.591 395.009 154.095C394.026 143.251 391.066 132.644 386.259 122.733C385.961 122.12 385.004 122.668 385.299 123.278L385.299 123.278Z" fill="white"/>
<path d="M394.01 174.449C397.57 174.664 401.096 173.688 403.958 171.696C406.82 169.704 408.832 166.825 409.634 163.574C409.794 162.915 408.707 162.652 408.547 163.311C407.806 166.34 405.932 169.022 403.263 170.872C400.594 172.722 397.306 173.618 393.992 173.4C393.272 173.353 393.294 174.403 394.01 174.449L394.01 174.449Z" fill="white"/>
<path d="M380.421 200.297C375.558 195.214 372.922 188.603 373.039 181.783C373.052 181.107 371.93 181.125 371.918 181.8C371.81 188.897 374.568 195.772 379.641 201.051C380.125 201.554 380.902 200.797 380.421 200.297L380.421 200.297Z" fill="white"/>
<path d="M392.716 143.909C391.32 144.095 389.896 143.953 388.573 143.497C387.25 143.04 386.069 142.284 385.136 141.295C384.66 140.787 383.882 141.544 384.356 142.049C385.392 143.137 386.698 143.971 388.158 144.478C389.619 144.985 391.19 145.15 392.734 144.959C392.881 144.952 393.02 144.893 393.123 144.794C393.225 144.695 393.283 144.563 393.286 144.425C393.283 144.286 393.221 144.154 393.114 144.058C393.007 143.961 392.864 143.908 392.716 143.909L392.716 143.909Z" fill="white"/>
<path d="M302.126 142.733C302.414 143.058 302.702 143.384 302.988 143.718C306.837 148.111 310.298 152.789 313.337 157.706C313.578 158.082 313.817 158.468 314.046 158.85C321.233 170.769 325.991 183.833 328.078 197.377C328.904 202.767 329.29 208.209 329.232 213.653C329.153 221.173 328.427 229.32 330.934 236.222C331.187 236.945 331.488 237.653 331.834 238.341L371.451 249.908C371.555 249.892 371.657 249.885 371.762 249.869L373.321 250.399C373.345 250.118 373.363 249.826 373.387 249.546C373.402 249.383 373.407 249.218 373.422 249.055C373.429 248.946 373.435 248.836 373.448 248.738C373.451 248.702 373.453 248.665 373.452 248.637C373.465 248.539 373.466 248.446 373.476 248.356C373.584 246.727 373.679 245.094 373.762 243.458C373.765 243.449 373.765 243.449 373.759 243.438C374.36 230.968 373.853 218.341 371.313 206.188C371.237 205.823 371.164 205.449 371.069 205.078C369.892 199.605 368.238 194.232 366.125 189.012C364.958 186.157 363.637 183.359 362.168 180.629C358.356 173.582 353.383 167.139 347.431 161.538C335.564 150.372 320.012 142.88 303.396 142.733C302.971 142.729 302.554 142.728 302.126 142.733Z" fill="#E6E6E6"/>
<path d="M302.058 143.229C320.563 152.654 335.421 167.293 344.524 185.066C346.556 188.859 347.937 192.929 348.614 197.124C349.133 201.231 348.466 205.393 346.683 209.178C345.097 212.738 343.033 216.207 342.4 220.066C342.107 222.045 342.264 224.061 342.862 225.979C343.461 227.898 344.486 229.676 345.87 231.199C349.215 235.075 353.849 237.597 358.473 239.915C363.607 242.489 368.983 245.087 372.475 249.608C372.899 250.155 373.783 249.509 373.36 248.962C367.283 241.097 356.269 239.159 348.902 232.707C345.465 229.697 342.977 225.7 343.388 221.171C343.748 217.21 345.872 213.631 347.512 210.039C349.309 206.371 350.118 202.348 349.869 198.319C349.422 194.105 348.212 189.993 346.29 186.158C342.11 177.461 336.495 169.433 329.648 162.367C321.883 154.262 312.692 147.46 302.474 142.254C301.841 141.933 301.43 142.909 302.058 143.229L302.058 143.229Z" fill="white"/>
<path d="M341.953 179.182C344.934 177.348 347.121 174.584 348.124 171.381C349.127 168.179 348.88 164.748 347.427 161.7C347.131 161.085 346.094 161.486 346.391 162.103C347.749 164.938 347.979 168.135 347.038 171.115C346.098 174.095 344.05 176.662 341.263 178.354C340.658 178.722 341.352 179.548 341.953 179.181L341.953 179.182Z" fill="white"/>
<path d="M347.742 207.472C340.587 206.152 334.227 202.358 329.93 196.846C329.505 196.3 328.621 196.946 329.045 197.492C333.528 203.219 340.155 207.155 347.604 208.513C348.314 208.642 348.448 207.6 347.742 207.472V207.472Z" fill="white"/>
<path d="M321.261 155.526C320.265 156.46 319.037 157.149 317.687 157.529C316.337 157.91 314.908 157.971 313.526 157.707C312.818 157.57 312.685 158.612 313.388 158.748C314.916 159.033 316.495 158.964 317.988 158.547C319.48 158.129 320.841 157.376 321.951 156.354C322.064 156.266 322.137 156.14 322.155 156.004C322.173 155.867 322.135 155.729 322.048 155.617C321.956 155.508 321.822 155.437 321.674 155.42C321.527 155.403 321.378 155.441 321.261 155.526H321.261Z" fill="white"/>
<path d="M99.7539 268.664C105.239 268.664 110.499 270.702 114.377 274.329C118.255 277.957 120.434 282.876 120.434 288.006V288.006C120.433 292.493 118.765 296.84 115.715 300.303C112.665 303.767 108.422 306.13 103.714 306.99V338.625H90.5139V268.664H99.7539Z" fill="#3F3D56"/>
<path d="M606.306 453.977V460.601C603.304 464.19 600.211 467.708 597.027 471.155C596.685 471.532 596.336 471.902 595.979 472.278C595.439 472.868 594.885 473.451 594.33 474.034V453.977H606.306Z" fill="#CACACA"/>
<path d="M571.168 440.161C568.521 440.164 565.983 441.149 564.111 442.899C562.24 444.65 561.187 447.024 561.184 449.5V462.939C561.187 465.415 562.24 467.789 564.111 469.54C565.983 471.291 568.521 472.276 571.168 472.278H595.979C596.336 471.902 596.685 471.532 597.027 471.155C600.211 467.708 603.304 464.19 606.306 460.601C606.503 460.367 606.701 460.132 606.891 459.898C608.608 457.844 610.295 455.754 611.952 453.65C613.243 452.001 614.528 450.338 615.781 448.661C615.789 448.654 615.797 448.654 615.797 448.647C617.894 445.861 619.938 443.032 621.929 440.161H571.168Z" fill="#3F3D56"/>
<path d="M635.052 325.123C633.527 324.631 631.924 324.381 630.311 324.384H626.23C624.744 324.385 623.266 324.593 621.845 325.002C618.849 325.883 616.231 327.634 614.372 330.001C612.512 332.368 611.507 335.228 611.503 338.165V450.282C611.503 450.701 611.526 451.113 611.564 451.518C611.63 452.238 611.76 452.951 611.952 453.65C613.243 452.002 614.528 450.338 615.781 448.661C615.789 448.654 615.797 448.654 615.797 448.647C617.894 445.861 619.938 443.032 621.929 440.161C623 438.619 624.064 437.062 625.105 435.499C632.628 424.21 639.291 412.44 645.045 400.275V338.165C645.041 335.288 644.076 332.484 642.285 330.145C640.493 327.807 637.964 326.051 635.052 325.123V325.123Z" fill="#3F3D56"/>
<path d="M132.113 453.977V467.36C128.694 463.536 125.388 459.628 122.197 455.633C121.756 455.086 121.323 454.532 120.89 453.977H132.113Z" fill="#CACACA"/>
<path d="M155.275 440.161H110.646C112.052 442.186 113.483 444.188 114.94 446.166C116.87 448.803 118.853 451.407 120.89 453.977C121.323 454.532 121.756 455.086 122.197 455.633C125.396 459.628 128.701 463.536 132.113 467.36C132.752 468.085 133.397 468.803 134.051 469.521C134.887 470.445 135.735 471.364 136.597 472.278H155.275C157.921 472.275 160.458 471.29 162.329 469.539C164.199 467.788 165.251 465.415 165.252 462.939V449.5C165.251 447.024 164.199 444.651 162.329 442.9C160.458 441.149 157.921 440.164 155.275 440.161V440.161Z" fill="#3F3D56"/>
<path d="M107.014 325.941C104.91 324.92 102.575 324.386 100.206 324.384H96.1325C94.2053 324.382 92.2966 324.737 90.517 325.429C87.8209 326.47 85.5156 328.236 83.8925 330.503C82.2694 332.77 81.4015 335.437 81.3984 338.165V386.331C89.0709 405.197 98.8759 423.242 110.646 440.161C112.052 442.186 113.483 444.188 114.94 446.166V338.165C114.938 335.645 114.198 333.173 112.801 331.018C111.404 328.863 109.403 327.107 107.014 325.941V325.941Z" fill="#3F3D56"/>
<path d="M273.022 534.099L286.408 531.227L280.933 481.567L261.176 485.807L273.022 534.099Z" fill="#9E616A"/>
<path d="M285.2 491.013C284.926 490.138 284.74 489.241 284.645 488.334C284.534 487.261 284.31 486.202 283.977 485.171C283.596 484.233 283.126 483.329 282.571 482.47C282.305 482.015 282.024 481.56 281.773 481.099C281.521 480.637 281.302 480.16 281.119 479.67C273.285 458.028 262.35 428.619 254.767 411.405C250.306 401.277 222.874 397.908 196.992 397.048C193.839 396.942 190.708 396.871 187.646 396.835C186.589 396.821 185.541 396.807 184.5 396.8C181.84 396.785 179.249 396.785 176.757 396.814C176.43 396.814 176.103 396.814 175.776 396.821C173.96 396.835 172.2 396.859 170.495 396.892C158.778 397.105 150.168 397.603 148.633 397.695L134.963 389.657L132.296 388.086L132.014 389.657L129.864 401.64L126.194 422.087L135.396 424.504L141.369 426.067L176.757 435.349L184.279 437.325L184.325 437.339L196.992 437.318L231.628 437.261L233.3 441.405C232.699 442.277 232.305 443.258 232.141 444.284C231.978 445.31 232.05 446.356 232.353 447.354C232.655 448.352 233.181 449.278 233.896 450.07C234.611 450.863 235.498 451.505 236.499 451.952L237.798 452.527L253.627 491.702C253.675 495.246 254.858 498.695 257.023 501.603C257.289 501.965 257.578 502.321 257.882 502.669L258.232 503.06L264.318 514.197L267.943 513.415L283.369 510.11L283.445 509.968C283.452 509.947 283.65 509.556 283.939 508.874V508.852C285.147 506.031 287.822 498.319 285.2 491.013Z" fill="#2F2E41"/>
<path d="M322.807 537.402C322.231 535.015 321.155 532.758 319.642 530.761C318.129 528.764 316.209 527.066 313.992 525.766C311.775 524.466 309.305 523.589 306.724 523.186C304.143 522.782 301.503 522.86 298.954 523.415L288.263 518.902L285.269 520.871L272.852 529.015L271.826 529.236L268.498 529.947L273.095 548.688L322.959 537.992L322.807 537.402Z" fill="#2F2E41"/>
<path d="M256.666 508.504L252.145 542.789L251.993 543.912L251.324 549.022C248.718 548.027 246.119 546.997 243.551 545.938C241.149 544.95 238.766 543.931 236.4 542.882V508.511L256.666 508.504Z" fill="#9E616A"/>
<path d="M158.554 272.805C173.693 272.805 185.965 261.327 185.965 247.167C185.965 233.008 173.693 221.529 158.554 221.529C143.415 221.529 131.142 233.008 131.142 247.167C131.142 261.327 143.415 272.805 158.554 272.805Z" fill="#9E616A"/>
<path d="M259.577 521.588C258.817 520.615 258.027 519.598 257.981 518.625C257.806 515.192 257.624 511.795 257.434 508.468C257.297 506.144 257.16 503.849 257.023 501.603C257.008 501.319 256.986 501.034 256.97 500.757C256.735 497.04 257.913 493.117 259.045 489.314C259.417 488.071 259.789 486.813 260.124 485.555C260.96 482.751 261.311 479.841 261.165 476.934C259.22 453.913 250.526 432.265 246.628 428.619C240.701 423.075 213.9 410.268 196.992 402.478C193.991 401.092 191.301 399.87 189.097 398.875C187.144 397.987 185.571 397.283 184.5 396.8C183.679 396.437 183.147 396.203 182.965 396.117L182.874 396.075L176.757 396.714L175.776 396.821L170.381 397.389L135.282 401.071L129.864 401.64L122.197 402.45L115.274 403.175L115.016 403.196L114.97 403.438C114.97 403.445 114.955 403.495 114.94 403.587C113.749 410.613 113.749 417.769 114.94 424.795C115.836 429.564 117.531 434.411 120.54 438.491C120.95 439.045 121.376 439.578 121.832 440.09C121.847 440.117 121.868 440.141 121.893 440.161C121.992 440.275 122.09 440.388 122.197 440.502V440.509C125.639 444.253 130.259 446.883 135.396 448.021C136.156 448.213 136.931 448.37 137.729 448.498C146.232 449.905 155.837 451.198 165.252 452.335C169.15 452.805 173.018 453.245 176.757 453.657C184.242 454.482 191.232 455.178 196.992 455.733C205.062 456.5 210.731 456.977 211.993 457.076L226.088 518.582C224.982 520.332 224.541 522.38 224.836 524.394C225.131 526.408 226.146 528.27 227.715 529.676L228.87 530.721L230.207 536.578L234.614 542.093L235.169 542.789H254.615L254.721 542.668C254.789 542.583 261.628 534.367 261.165 524.581C261.119 523.571 260.367 522.612 259.577 521.588Z" fill="#2F2E41"/>
<path d="M259.046 315.454C257.573 315.077 256.03 315.007 254.526 315.249C253.021 315.49 251.591 316.037 250.337 316.852C249.083 317.666 248.035 318.727 247.267 319.961C246.499 321.195 246.03 322.572 245.892 323.994L223.117 330.652L224.067 344.584L256.089 334.759C258.659 334.817 261.162 333.991 263.124 332.439C265.086 330.886 266.371 328.714 266.735 326.335C267.1 323.955 266.518 321.533 265.101 319.528C263.684 317.522 261.529 316.073 259.046 315.454V315.454Z" fill="#9E616A"/>
<path d="M244.185 338.509L227.163 344.534L226.728 345.324C226.211 346.262 225.502 347.095 224.641 347.776C223.78 348.458 222.784 348.974 221.71 349.295C220.636 349.616 219.504 349.736 218.38 349.648C217.257 349.561 216.162 349.267 215.16 348.784L176.899 362.328C176.899 362.328 159.813 346.335 147.648 332.063L151.794 308.212C152.754 302.678 154.795 297.357 157.815 292.514C182.763 297.63 197.084 330.249 197.084 330.249L242.046 322.225L244.185 338.509Z" fill="#44CD14"/>
<path d="M154.659 271.435C147.796 273.168 140.231 270.863 134.875 266.492C129.52 262.12 126.17 255.925 124.239 249.527C122.826 244.841 122.155 239.639 124.386 235.239C126.617 230.84 132.621 227.872 137.253 230.094C134.396 226.98 135.823 221.83 139.161 219.166C142.498 216.502 147.081 215.738 151.446 215.321C157.78 214.715 164.323 214.647 170.351 216.567C176.378 218.486 181.855 222.682 183.742 228.37C185.668 229.209 187.838 229.427 189.911 228.989C191.984 228.552 193.844 227.483 195.198 225.951C195.547 227.711 195.267 229.529 194.4 231.124C193.533 232.719 192.129 234.003 190.403 234.776L199.639 231.976C201.227 235.12 198.444 239.012 194.885 240.019C191.326 241.026 187.484 239.925 184.107 238.47C180.73 237.016 177.457 235.177 173.788 234.609C170.12 234.042 165.811 235.144 164.114 238.239C163.225 239.859 163.179 241.758 162.663 243.514C162.147 245.27 160.84 247.091 158.898 247.235C157.672 247.326 156.471 246.715 155.248 246.84C154.497 246.978 153.806 247.318 153.258 247.818C152.711 248.318 152.332 248.957 152.167 249.655C151.862 251.057 151.858 252.502 152.156 253.905L154.502 270.677L154.659 271.435Z" fill="#2F2E41"/>
<path d="M189.097 398.875L187.646 396.835L177.053 381.974L176.84 381.682L180.115 365.791L181.134 360.83L183.36 350.034L182.714 325.322L182.251 307.838L182.182 305.095L179.834 298.4C178.721 295.269 176.933 292.385 174.58 289.927C172.227 287.468 169.36 285.488 166.156 284.107L150.351 277.341C148.49 276.549 146.37 276.481 144.456 277.151C142.542 277.821 140.991 279.175 140.144 280.915C140.073 281.06 140.008 281.207 139.948 281.357C137.782 281.634 128.382 283.112 120.411 288.898C114.827 292.871 110.928 298.567 109.408 304.974C109.393 305.024 109.385 305.074 109.37 305.123C108.314 309.537 107.523 316.502 107.014 325.941C106.672 332.181 106.457 339.492 106.368 347.873C106.226 361.845 107.067 375.81 108.883 389.678C109.058 391 109.241 392.315 109.431 393.637C109.59 394.746 110.73 395.805 111.832 396.821C112.842 397.752 113.884 398.719 114.028 399.593C114.157 400.36 113.633 401.163 113.01 402.002C112.934 402.109 112.85 402.215 112.774 402.322C111.999 403.352 111.201 404.426 111.406 405.556C111.885 408.1 112.166 410.687 112.432 413.189C112.729 416.633 113.262 420.057 114.028 423.437C114.294 424.475 114.598 425.52 114.94 426.565C115.738 429.017 116.703 431.462 117.645 433.85C118.458 435.925 119.302 438.057 120.016 440.161C120.153 440.552 120.282 440.935 120.403 441.319L120.464 441.518L120.685 441.554H120.7C120.999 441.055 121.356 440.587 121.764 440.161C121.782 440.134 121.805 440.11 121.832 440.09C121.938 439.969 122.06 439.841 122.197 439.706C123.861 438.007 127.478 434.958 135.396 429.82C137.166 428.675 139.15 427.432 141.369 426.067C149.507 421.085 160.875 414.596 176.757 406.217C180.738 404.113 185.012 401.888 189.576 399.543L189.097 398.875Z" fill="#44CD14"/>
<path d="M274.334 555.22C272.488 553.486 270.293 552.112 267.876 551.177C265.46 550.241 262.869 549.762 260.253 549.769L251.993 543.912L250.906 543.138L243.551 545.938C246.119 546.997 248.718 548.027 251.324 549.022C259.478 552.135 267.804 554.917 276.302 557.366C275.705 556.605 275.047 555.888 274.334 555.22V555.22Z" fill="#2F2E41"/>
<path d="M365.12 222.903V11.165H357.2V222.903C346.378 223.827 336.317 228.5 328.99 236.005C321.663 243.511 317.601 253.307 317.599 263.47V274.581H345.319C345.317 278.51 346.984 282.28 349.952 285.06C352.921 287.84 356.949 289.403 361.15 289.405C365.351 289.407 369.381 287.849 372.354 285.072C375.326 282.295 376.997 278.528 377 274.599V274.581H404.72V263.47C404.719 253.307 400.656 243.511 393.329 236.005C386.002 228.5 375.941 223.827 365.12 222.903Z" fill="white"/>
<path d="M457.794 533.615L447.449 528.988L461.66 488.544L476.928 495.374L457.794 533.615Z" fill="#FFB6B6"/>
<path d="M527.148 527.096C524.139 528.852 521.092 530.558 518.007 532.214V532.235L517.961 532.242L517.946 532.249L516.776 532.519L515.096 528.369L511.221 518.795L500.659 492.712L517.08 488.924L518.007 492.442L524.952 518.788L526.943 526.322L527.148 527.096Z" fill="#FFB6B6"/>
<path d="M485.267 357.83C486.743 360.071 489.096 361.684 491.826 362.324C494.556 362.965 497.445 362.582 499.877 361.258C500.366 360.981 500.83 360.667 501.263 360.318L533.969 377.873L532.549 359.852L501.708 345.945C500.03 344.368 497.84 343.357 495.481 343.07C493.123 342.782 490.729 343.235 488.675 344.357C486.324 345.677 484.63 347.817 483.966 350.306C483.301 352.794 483.721 355.427 485.133 357.626C485.177 357.695 485.222 357.762 485.267 357.83Z" fill="#FFB6B6"/>
<path d="M519.908 371.262L525.689 374.558L551.654 389.367C553.358 390.364 555.256 391.038 557.239 391.349C559.222 391.661 561.25 391.604 563.21 391.182C565.169 390.76 567.02 389.981 568.657 388.89C570.295 387.799 571.686 386.417 572.753 384.823L572.761 384.81C574.684 381.848 575.364 378.324 574.671 374.92L563.13 320.995C562.704 318.878 561.794 316.872 560.463 315.114C559.131 313.357 557.41 311.889 555.416 310.811C553.422 309.732 551.202 309.07 548.91 308.868C546.617 308.666 544.304 308.929 542.13 309.64C538.475 310.841 535.448 313.299 533.662 316.514C531.877 319.729 531.468 323.46 532.519 326.947L544.586 365.216L526.089 357.15L519.908 371.262Z" fill="#44CD14"/>
<path d="M626.374 424.432C626.367 424.411 626.351 424.333 626.329 424.212L626.306 424.134C626.253 423.878 626.192 423.594 626.123 423.281C624.573 416.08 622.581 408.968 620.158 401.981C618.723 397.702 616.821 393.572 614.482 389.657C614.406 389.529 614.322 389.401 614.239 389.273L613.958 388.847L611.594 389.657L611.503 389.685L575.576 402.002L565.188 405.563L564.861 405.677L563.091 412.428L538.25 409.422L518.007 406.97L512.194 406.266C509.674 405.959 507.113 406.124 504.662 406.751C502.211 407.378 499.917 408.455 497.915 409.92C495.826 411.434 494.08 413.323 492.78 415.476C491.479 417.628 490.649 420.001 490.339 422.457C490.263 422.997 490.218 423.544 490.195 424.084L488.44 485.327V485.405L489.253 486.926L506.236 518.795H518.007L524.952 518.788H530.598L518.858 491.006L519.124 490.629C520.228 489.045 520.925 487.243 521.158 485.365C521.392 483.487 521.156 481.583 520.469 479.805L521.791 476.223C524.534 468.824 523.235 465.271 521.593 460.779C520.119 457.126 519.253 453.284 519.025 449.386L518.751 444.319C525.644 445.449 532.065 446.707 538.25 447.972C540.317 448.391 542.364 448.815 544.39 449.244C550.158 450.445 555.728 451.603 561.184 452.57C572.232 454.539 582.818 455.74 593.691 454.994C593.904 454.979 594.117 454.965 594.33 454.944C596.974 454.745 599.634 454.425 602.324 453.977C603.836 453.721 605.356 453.43 606.891 453.089C607.316 452.989 607.749 452.89 608.175 452.79C609.357 452.499 610.495 452.072 611.564 451.518C613.085 450.724 614.5 449.765 615.781 448.661C615.789 448.654 615.797 448.654 615.797 448.647C617.894 445.861 619.938 443.032 621.929 440.161C623 438.619 624.064 437.062 625.105 435.498C626.625 431.597 627.202 427.659 626.374 424.432Z" fill="#2F2E41"/>
<path d="M626.625 412.926C626.511 412.471 626.367 412.009 626.215 411.561C625.008 408.17 623.603 404.844 622.005 401.597C620.211 397.901 618.061 393.943 615.5 389.657C614.262 387.582 612.929 385.423 611.503 383.182C610.789 382.059 610.047 380.915 609.277 379.749C609.247 379.696 609.214 379.644 609.178 379.593L608.958 379.252L573.41 383.701L560.173 385.357L559.383 391.526L559.193 393.054C559.185 393.054 559.185 393.054 559.193 393.061L558.661 397.226V397.233L557.954 402.734L557.893 402.727L538.25 400.346L518.007 397.894L507.133 396.579C504.613 396.272 502.052 396.437 499.601 397.064C497.15 397.691 494.856 398.768 492.854 400.232C490.765 401.747 489.02 403.636 487.719 405.789C486.418 407.941 485.588 410.314 485.278 412.77C485.21 413.267 485.164 413.779 485.142 414.283L474.883 437.019C468.745 450.617 464.835 465.003 463.287 479.691L455.764 502.186L456.836 502.278L472.778 503.664L476.988 504.034L486.259 491.376C487.315 489.933 488.318 488.447 489.253 486.926C490.791 484.442 492.159 481.869 493.348 479.222L513.402 434.589C514.952 434.838 516.487 435.075 518.007 435.299C525.036 436.366 531.783 437.235 538.25 437.908C559.276 440.104 577.483 440.275 593.691 438.412C598.243 437.894 602.643 437.211 606.891 436.366C608.448 436.06 609.986 435.731 611.503 435.378C611.86 435.299 612.21 435.221 612.559 435.136C615.7 434.379 618.587 432.896 620.957 430.825C623.326 428.754 625.103 426.16 626.123 423.281C627.342 419.945 627.516 416.352 626.625 412.926Z" fill="#2F2E41"/>
<path d="M551.035 278.692C564.615 278.692 575.624 268.166 575.624 255.182C575.624 242.197 564.615 231.671 551.035 231.671C537.455 231.671 526.446 242.197 526.446 255.182C526.446 268.166 537.455 278.692 551.035 278.692Z" fill="#FFB6B6"/>
<path d="M609.421 380.538C609.383 380.275 609.338 380.012 609.277 379.749C608.692 376.864 607.172 374.035 605.705 371.292C604.307 368.676 602.977 366.203 602.43 363.744C601.891 361.32 602.21 358.89 602.521 356.544C602.856 354 603.205 351.37 602.423 348.819C598.453 335.788 593.001 323.193 586.161 311.25C584.435 305.998 581.126 301.323 576.631 297.786C572.137 294.249 566.646 291.999 560.819 291.307C561.499 290.119 561.782 288.767 561.632 287.426C561.537 286.56 561.259 285.72 560.814 284.955C560.369 284.19 559.766 283.516 559.041 282.97C558.344 282.445 557.542 282.054 556.683 281.82C555.823 281.586 554.923 281.513 554.033 281.606L542.604 282.807C540.772 283.022 539.105 283.905 537.965 285.264C536.825 286.623 536.305 288.348 536.518 290.063C536.582 290.591 536.709 291.111 536.898 291.613C526.29 304.249 520.841 315.763 520.34 326.651V326.658C520.279 327.916 520.286 329.175 520.362 330.432C520.603 334.497 521.547 338.498 523.159 342.28C525.062 346.649 527.609 350.747 530.727 354.455C531.366 355.208 532.027 355.947 532.711 356.672C533.349 357.383 534.063 358.129 534.854 358.911L536.852 361.839L538.714 364.575L548.668 386.061L553.737 385.904L554.443 390.631L554.611 391.732L557.893 402.727L558.136 403.551L562.627 401.554L589.421 389.657L609.452 380.759L609.421 380.538Z" fill="#44CD14"/>
<path opacity="0.2" d="M523.46 342.166C525.744 347.4 528.956 352.236 532.96 356.472C533.645 357.237 534.369 357.99 535.127 358.743L539.017 364.452C553.355 354.4 564.973 314.82 564.973 314.82L548.795 311.877L523.46 342.166Z" fill="black"/>
<path d="M513.665 280.888C515.082 283.164 515.493 285.868 514.811 288.423C514.13 290.978 512.409 293.184 510.015 294.57C509.524 294.845 509.009 295.081 508.476 295.276L509.621 330.53L493.298 320.92L494.713 288.915C494.019 286.786 494.098 284.501 494.937 282.417C495.777 280.334 497.331 278.569 499.356 277.398C501.697 276.074 504.505 275.673 507.161 276.285C509.818 276.897 512.106 278.47 513.522 280.66C513.571 280.735 513.619 280.812 513.665 280.888Z" fill="#FFB6B6"/>
<path d="M511.056 317.223L493.106 319.61L493.877 354.378C493.922 356.858 494.644 359.286 495.975 361.432C497.306 363.578 499.201 365.369 501.481 366.637V366.637C504.266 368.17 507.508 368.814 510.719 368.473C513.93 368.132 516.935 366.824 519.282 364.747L561.661 326.621C564.643 323.976 566.427 320.362 566.647 316.524C566.868 312.685 565.507 308.914 562.845 305.985C560.237 303.097 556.509 301.297 552.482 300.98C548.454 300.663 544.457 301.856 541.37 304.295C541.249 304.39 541.13 304.488 541.012 304.587C540.594 304.937 540.195 305.308 539.819 305.698L511.836 335.807L511.056 317.223Z" fill="#44CD14"/>
<path d="M527.604 526.208L526.943 526.322L518.007 527.864L515.096 528.369L510.514 529.158L512.14 535.291C514.093 534.303 516.023 533.287 517.946 532.249L517.961 532.242L518.007 532.235V532.214C521.092 530.565 524.139 528.859 527.148 527.096C527.361 526.976 527.574 526.855 527.786 526.72L527.604 526.208Z" fill="#2F2E41"/>
<path d="M461.099 527.011L449.906 521.994L448.15 521.205L445.346 527.644L425.772 531.674C424.804 531.872 423.929 532.355 423.275 533.051C422.622 533.748 422.223 534.621 422.139 535.545C422.054 536.468 422.287 537.393 422.804 538.183C423.321 538.974 424.094 539.589 425.012 539.939L444.138 547.238L450.21 542.128L448.72 548.987L455.924 551.737L463.819 528.234L461.099 527.011Z" fill="#2F2E41"/>
<path d="M616.832 244.985C612.653 240.427 610.665 234.378 607.324 229.202C603.983 224.025 598.168 219.392 592.026 220.597C587.791 221.427 584.519 224.922 582.862 228.818C581.206 232.714 580.895 237.011 580.605 241.22C580.708 232.57 574.614 224.184 566.221 221.424C557.827 218.664 547.782 221.742 542.508 228.692C540.207 226.697 537.202 225.561 534.065 225.499C530.927 225.437 527.875 226.455 525.486 228.358C520.768 232.301 519.724 239.807 523.193 244.838C526.663 249.868 534.177 251.742 539.69 248.952L541.64 250.629C540.542 254.218 542.67 258.458 546.247 259.809C549.147 260.905 553.242 260.722 554.327 263.569C555.086 265.558 553.668 267.682 552.16 269.21C550.652 270.739 548.862 272.317 548.681 274.432C548.407 277.624 551.933 279.859 555.139 280.533C562.868 282.156 571.444 278.809 575.899 272.429C575.985 272.306 576.078 272.183 576.179 272.059C578.678 269.07 580.5 265.635 581.532 261.965C582.564 258.295 582.786 254.467 582.183 250.714C581.932 249.239 582.184 248.143 583.271 247.793C587.969 246.284 601.132 249.452 605.116 252.315C609.099 255.178 612.289 258.967 616.126 262.015C619.964 265.063 624.853 267.414 629.725 266.584C633.627 265.919 636.947 263.269 639.18 260.073C641.412 256.877 642.697 253.152 643.848 249.45C635.22 254.112 623.411 252.16 616.832 244.985Z" fill="#2F2E41"/>
<path d="M538.247 385.127V520.306C535.496 522.076 532.71 523.798 529.888 525.473V394.089C529.888 390.279 528.521 387.188 526.841 387.181H400.328C398.641 387.188 397.281 390.279 397.273 394.089V568.543C395.586 568.699 393.899 568.849 392.212 568.977C391.513 569.033 390.806 569.083 390.107 569.133C389.704 568.436 389.309 567.733 388.914 567.022V385.127C388.914 384.075 388.96 383.016 389.036 381.971C389.72 373.101 393.116 366.619 397.091 366.605H530.071C530.552 366.608 531.028 366.703 531.469 366.882C534.797 368.204 537.427 374.004 538.088 381.502C538.194 382.696 538.255 383.911 538.247 385.127Z" fill="#E4E4E4"/>
<path d="M335.259 385.127V568.003C335.145 568.173 335.031 568.337 334.917 568.508C332.06 568.237 329.215 567.927 326.383 567.576V394.089C326.383 390.279 324.932 387.188 323.146 387.181H188.866C187.081 387.188 185.629 390.279 185.629 394.089V514.528C182.628 512.46 179.669 510.34 176.754 508.167V385.127C176.754 384.075 176.799 383.016 176.883 381.971C177.605 373.101 181.214 366.619 185.439 366.605H326.573C327.082 366.607 327.585 366.701 328.055 366.882C331.588 368.204 334.385 374.004 335.091 381.502C335.205 382.696 335.259 383.911 335.259 385.127Z" fill="#E4E4E4"/>
<path d="M290.257 324.353L299.057 360.568L304.681 366.329H308.738L292.018 300.483L291.19 311.669V311.677L290.257 324.353Z" fill="#3F3D56"/>
<path d="M319.562 368.179C319.537 368.123 319.503 368.07 319.463 368.022C319.382 367.851 319.266 367.697 319.121 367.568L318.096 366.608L312.7 361.555C312.304 361.192 311.773 360.989 311.219 360.986H311.196L307.389 361.008L304.114 361.029L299.539 361.057L268.384 361.242L247.905 361.363C247.35 361.37 246.82 361.579 246.43 361.948C246.039 362.316 245.818 362.813 245.815 363.332C245.818 363.619 245.886 363.902 246.013 364.163L246.408 364.952L247.236 366.608L248.315 368.776L248.847 369.842C249.017 370.181 249.286 370.469 249.624 370.67C249.962 370.871 250.354 370.979 250.754 370.979H317.632C317.984 370.973 318.329 370.886 318.636 370.725C318.944 370.565 319.204 370.336 319.395 370.06C319.585 369.783 319.7 369.467 319.73 369.139C319.759 368.811 319.701 368.481 319.562 368.179H319.562Z" fill="#3F3D56"/>
<path opacity="0.17" d="M248.316 368.774L248.844 369.844C249.016 370.182 249.286 370.468 249.624 370.669C249.962 370.87 250.354 370.978 250.754 370.98H317.634C317.986 370.974 318.331 370.887 318.638 370.727C318.945 370.567 319.206 370.338 319.396 370.062C319.587 369.785 319.701 369.469 319.73 369.141C319.759 368.813 319.701 368.483 319.562 368.181C319.538 368.125 319.505 368.072 319.465 368.025L248.316 368.774Z" fill="black"/>
<path opacity="0.17" d="M291.19 311.669V311.677L305.508 366.329H308.738L292.018 300.483L291.19 311.669Z" fill="black"/>
<path d="M313.65 158.729L311.553 158.466C310.977 158.396 310.396 158.541 309.934 158.871L308.681 159.773L294.721 176.106C294.26 176.439 293.96 176.93 293.886 177.47L293.103 183.028L273.619 321.683C273.55 322.197 273.688 322.717 274.007 323.14L283.186 346.807L283.46 347.177L284.053 347.966C284.358 348.366 284.805 348.653 285.314 348.776L286.644 349.089C286.946 349.16 287.261 349.169 287.567 349.118C287.874 349.067 288.165 348.955 288.422 348.79C288.68 348.628 288.898 348.416 289.06 348.168C289.223 347.921 289.326 347.643 289.364 347.355L291.743 330.454V330.446L293.262 319.601L294.547 310.454V310.447L315.55 161.031C315.626 160.492 315.469 159.946 315.115 159.515C314.761 159.083 314.238 158.801 313.661 158.73L313.65 158.729Z" fill="#3F3D56"/>
<path opacity="0.17" d="M308.677 159.774L283.185 346.81L283.462 347.177L284.053 347.963C284.357 348.364 284.804 348.652 285.314 348.774L286.646 349.087C286.947 349.157 287.261 349.167 287.567 349.115C287.873 349.064 288.163 348.953 288.42 348.789C288.677 348.626 288.894 348.414 289.057 348.166C289.22 347.919 289.325 347.642 289.366 347.354L315.548 161.034C315.624 160.493 315.467 159.946 315.111 159.513C314.756 159.08 314.232 158.797 313.653 158.725L311.55 158.467C311.265 158.431 310.975 158.448 310.697 158.518C310.419 158.588 310.159 158.709 309.931 158.874L308.677 159.774Z" fill="black"/>
<path d="M307.926 165.123L294.398 183.183L278.319 297.61L287.036 313.786L307.926 165.123Z" fill="#44CD14"/>
<path d="M439.705 324.353L430.905 360.568L425.282 366.329H421.225L437.945 300.483L438.772 311.669V311.677L439.705 324.353Z" fill="#3F3D56"/>
<path d="M482.056 361.363L430.43 361.057L425.848 361.029L422.58 361.008L418.773 360.986H418.743C418.19 360.987 417.661 361.191 417.268 361.555L410.84 367.568C410.698 367.699 410.582 367.853 410.498 368.022C410.458 368.07 410.425 368.123 410.399 368.179C410.26 368.481 410.202 368.811 410.232 369.139C410.261 369.467 410.376 369.783 410.567 370.06C410.757 370.336 411.018 370.565 411.325 370.725C411.633 370.886 411.977 370.973 412.329 370.979H479.207C479.608 370.978 480.001 370.87 480.34 370.669C480.679 370.468 480.95 370.181 481.122 369.842L481.646 368.776L482.725 366.608L483.949 364.163C484.079 363.903 484.147 363.619 484.146 363.332C484.143 362.813 483.923 362.316 483.532 361.948C483.141 361.579 482.611 361.369 482.056 361.363V361.363Z" fill="#3F3D56"/>
<path opacity="0.17" d="M481.646 368.774L481.118 369.844C480.946 370.182 480.676 370.468 480.338 370.669C480 370.87 479.609 370.978 479.208 370.98H412.328C411.976 370.974 411.632 370.887 411.324 370.727C411.017 370.567 410.757 370.338 410.566 370.062C410.376 369.785 410.261 369.469 410.232 369.141C410.203 368.813 410.261 368.483 410.401 368.181C410.424 368.125 410.457 368.072 410.498 368.025L481.646 368.774Z" fill="black"/>
<path opacity="0.17" d="M438.772 311.669V311.677L424.454 366.329H421.225L437.945 300.483L438.772 311.669Z" fill="black"/>
<path d="M456.342 321.683L436.076 177.47C436.002 176.93 435.701 176.439 435.24 176.106L421.288 159.773L420.034 158.871C419.57 158.542 418.986 158.396 418.408 158.466L416.311 158.729C415.733 158.798 415.208 159.08 414.851 159.512C414.495 159.944 414.337 160.49 414.411 161.031V161.031L435.415 310.454V310.461L436.699 319.601L438.226 330.454V330.468L440.597 347.355C440.635 347.644 440.739 347.922 440.903 348.17C441.067 348.418 441.287 348.63 441.547 348.79C441.802 348.955 442.092 349.067 442.398 349.118C442.703 349.169 443.017 349.16 443.317 349.089L444.647 348.776C445.157 348.653 445.603 348.366 445.909 347.966L446.501 347.177L446.775 346.807L455.954 323.14C456.276 322.718 456.415 322.197 456.342 321.683V321.683Z" fill="#3F3D56"/>
<path opacity="0.17" d="M421.285 159.774L446.777 346.811L446.5 347.177L445.91 347.963C445.605 348.365 445.158 348.652 444.648 348.774L443.316 349.087C443.015 349.157 442.701 349.167 442.395 349.115C442.09 349.064 441.799 348.953 441.542 348.789C441.285 348.626 441.069 348.414 440.906 348.166C440.743 347.919 440.637 347.642 440.596 347.354L414.415 161.034C414.339 160.493 414.496 159.946 414.851 159.513C415.206 159.08 415.731 158.797 416.309 158.725L418.412 158.467C418.697 158.431 418.987 158.448 419.265 158.518C419.543 158.588 419.804 158.709 420.031 158.874L421.285 159.774Z" fill="black"/>
<path d="M422.036 165.123L435.564 183.183L451.644 297.61L442.926 313.786L422.036 165.123Z" fill="#44CD14"/>
<path d="M170.594 395.826C170.596 396.183 170.563 396.54 170.495 396.892C170.465 397.063 170.427 397.226 170.381 397.389C170.011 398.711 169.183 399.881 168.027 400.715C166.871 401.55 165.451 402.002 163.99 402.002H135.396V465.79C135.397 467.138 134.925 468.449 134.051 469.521C133.397 468.803 132.752 468.085 132.113 467.36C128.694 463.537 125.388 459.628 122.197 455.633V402.002H109.431C107.728 402.001 106.092 401.385 104.864 400.282C103.636 399.18 102.911 397.676 102.841 396.085C102.77 394.495 103.359 392.94 104.485 391.746C105.611 390.552 107.187 389.811 108.883 389.678C109.066 389.664 109.248 389.657 109.431 389.657H163.99C165.741 389.656 167.419 390.306 168.658 391.463C169.896 392.619 170.593 394.189 170.594 395.826V395.826Z" fill="#3F3D56"/>
<path d="M626.245 395.826C626.245 397.076 625.84 398.297 625.083 399.327C624.326 400.358 623.253 401.149 622.005 401.597C621.413 401.809 620.791 401.938 620.158 401.981C619.991 401.995 619.816 402.002 619.649 402.002H606.891V459.898C606.701 460.132 606.503 460.367 606.306 460.601C603.304 464.19 600.211 467.709 597.027 471.155C596.011 470.62 595.166 469.84 594.579 468.897C593.993 467.953 593.686 466.881 593.691 465.79V402.002H565.089C564.245 402.005 563.409 401.853 562.627 401.554C561.643 401.186 560.768 400.601 560.077 399.849C559.387 399.096 558.901 398.199 558.661 397.233V397.226C558.306 395.823 558.495 394.347 559.193 393.061C559.185 393.054 559.185 393.054 559.193 393.054C559.494 392.488 559.889 391.97 560.363 391.519C560.978 390.93 561.713 390.461 562.525 390.141C563.337 389.822 564.209 389.657 565.089 389.657H619.649C620.515 389.657 621.373 389.816 622.173 390.126C622.973 390.436 623.7 390.89 624.313 391.463C624.925 392.035 625.411 392.715 625.743 393.463C626.074 394.212 626.245 395.014 626.245 395.824L626.245 395.826Z" fill="#3F3D56"/>
<path d="M625.808 276.895C623.093 276.895 620.403 277.395 617.894 278.367C615.385 279.339 613.106 280.764 611.185 282.56C609.265 284.356 607.742 286.488 606.702 288.835C605.663 291.182 605.128 293.697 605.128 296.237V296.237C605.129 300.724 606.797 305.071 609.847 308.534C612.898 311.997 617.14 314.361 621.848 315.221V346.856H635.048V276.895H625.808Z" fill="#3F3D56"/>
<path d="M264.748 347.523C263.432 346.8 261.962 346.356 260.442 346.222C258.922 346.088 257.39 346.267 255.952 346.747C254.514 347.227 253.206 347.996 252.121 349C251.035 350.004 250.198 351.218 249.669 352.557L225.824 353.427L222.612 363.815L256.509 365.438C258.974 366.121 261.62 365.935 263.948 364.914C266.275 363.894 268.121 362.111 269.137 359.903C270.152 357.695 270.267 355.215 269.458 352.933C268.649 350.651 266.973 348.726 264.749 347.523H264.748Z" fill="#9E616A"/>
<path d="M245.162 366.558L220.67 366.272L217.569 366.233L167.738 365.646C167.738 365.646 154.205 353.571 142.422 341.14L144.074 329.967C145.685 319.002 151.5 308.958 160.438 301.704C177.315 312.251 187.101 333.127 187.101 333.127L203.511 339.995C215.06 340.478 226.313 343.561 236.316 348.981L241.712 351.905L245.162 366.558Z" fill="#44CD14"/>
<path d="M322.115 567.025H410.46C404.434 567.849 398.352 568.501 392.215 568.979H340.36C334.22 568.503 328.139 567.852 322.115 567.025Z" fill="#CCCCCC"/>
<path d="M339.877 525.427C341.587 510.994 350.932 496.678 365.557 491.805C359.975 506.708 360.208 522.978 366.217 537.735C368.556 543.418 371.791 549.512 369.749 555.295C368.479 558.893 365.286 561.674 361.698 563.433C358.109 565.192 354.111 566.058 350.162 566.908L349.391 567.521C342.915 554.323 338.167 539.859 339.877 525.427Z" fill="#CCCCCC"/>
<path d="M365.706 492.076C357.279 501.149 352.122 512.476 350.968 524.447C350.671 527.019 350.809 529.62 351.378 532.153C352.017 534.603 353.346 536.849 355.227 538.656C356.945 540.374 358.914 541.946 360.155 544.025C360.774 545.098 361.143 546.281 361.238 547.496C361.333 548.712 361.153 549.933 360.708 551.078C359.68 553.96 357.606 556.325 355.491 558.571C353.144 561.065 350.663 563.621 349.697 566.9C349.58 567.298 348.928 567.105 349.045 566.708C350.726 561.002 356.579 557.7 359.319 552.545C360.598 550.14 361.109 547.359 359.842 544.853C358.735 542.662 356.705 541.039 354.95 539.314C353.087 537.576 351.708 535.437 350.933 533.086C350.228 530.588 349.983 527.997 350.208 525.423C350.615 519.62 351.996 513.913 354.299 508.51C356.891 502.331 360.593 496.613 365.247 491.602C365.535 491.292 365.993 491.768 365.706 492.076H365.706Z" fill="white"/>
<path d="M351.097 520.572C348.976 520.118 347.096 518.974 345.794 517.344C344.492 515.714 343.851 513.703 343.987 511.672C343.993 511.59 344.034 511.512 344.1 511.457C344.166 511.402 344.252 511.372 344.341 511.375C344.43 511.378 344.514 511.413 344.575 511.473C344.637 511.533 344.671 511.613 344.671 511.696C344.541 513.587 345.137 515.459 346.354 516.975C347.57 518.491 349.325 519.55 351.303 519.961C351.733 520.051 351.524 520.661 351.097 520.572H351.097Z" fill="white"/>
<path d="M354.234 537.892C358.022 535.712 360.792 532.276 361.992 528.271C362.111 527.874 362.763 528.067 362.645 528.463C361.387 532.629 358.497 536.199 354.55 538.46C354.173 538.675 353.859 538.106 354.234 537.892Z" fill="white"/>
<path d="M357.534 502.93C358.316 503.265 359.174 503.414 360.032 503.362C360.89 503.311 361.721 503.061 362.451 502.635C362.824 502.415 363.137 502.984 362.767 503.202C361.959 503.67 361.04 503.945 360.092 504.004C359.144 504.063 358.195 503.903 357.328 503.54C357.243 503.512 357.173 503.455 357.132 503.381C357.09 503.306 357.08 503.22 357.105 503.139C357.132 503.058 357.193 502.991 357.273 502.952C357.354 502.913 357.447 502.905 357.534 502.93L357.534 502.93Z" fill="white"/>
<path d="M410.708 516.981C410.479 517.124 410.25 517.268 410.021 517.416C406.954 519.358 404.061 521.529 401.37 523.909C401.159 524.09 400.948 524.277 400.743 524.463C394.325 530.261 389.114 537.124 385.374 544.701C383.889 547.718 382.652 550.836 381.673 554.028C380.321 558.437 379.23 563.318 376.48 566.944C376.198 567.326 375.891 567.69 375.56 568.036L350.25 568.353C350.192 568.326 350.134 568.305 350.076 568.279L349.066 568.335C349.104 568.167 349.148 567.994 349.186 567.826C349.208 567.728 349.235 567.631 349.257 567.533C349.273 567.468 349.29 567.403 349.3 567.344C349.306 567.322 349.311 567.3 349.317 567.284C349.327 567.224 349.344 567.17 349.355 567.116C349.595 566.146 349.843 565.176 350.099 564.206C350.099 564.201 350.099 564.201 350.104 564.195C351.977 556.785 354.782 549.609 358.462 542.818C358.575 542.617 358.687 542.41 358.811 542.209C360.517 539.201 362.483 536.329 364.69 533.622C365.903 532.143 367.195 530.722 368.562 529.365C372.101 525.866 376.206 522.909 380.727 520.602C389.741 516.006 400.226 514.157 409.966 516.774C410.215 516.841 410.459 516.908 410.708 516.981Z" fill="#CCCCCC"/>
<path d="M410.656 517.282C398.086 519.781 386.677 525.921 378.051 534.829C376.157 536.716 374.593 538.87 373.417 541.213C372.35 543.529 371.966 546.071 372.304 548.573C372.569 550.912 373.13 553.276 372.783 555.635C372.586 556.839 372.119 557.992 371.413 559.016C370.706 560.04 369.776 560.913 368.684 561.578C366.007 563.3 362.829 564.02 359.695 564.623C356.216 565.292 352.59 565.936 349.707 568.01C349.358 568.262 348.962 567.74 349.31 567.489C354.325 563.88 361.125 564.539 366.631 561.966C369.2 560.766 371.398 558.834 372 556.12C372.526 553.746 371.95 551.308 371.659 548.942C371.291 546.505 371.566 544.021 372.461 541.707C373.506 539.316 374.978 537.109 376.815 535.18C380.876 530.776 385.652 526.997 390.968 523.98C397.015 520.506 403.653 518.025 410.594 516.645C411.024 516.559 411.083 517.197 410.656 517.282H410.656Z" fill="white"/>
<path d="M380.648 531.808C379.246 530.251 378.482 528.279 378.491 526.244C378.501 524.209 379.283 522.243 380.699 520.698C380.987 520.386 381.518 520.79 381.23 521.102C379.909 522.539 379.18 524.37 379.176 526.265C379.171 528.16 379.891 529.994 381.205 531.436C381.49 531.75 380.931 532.12 380.648 531.808Z" fill="white"/>
<path d="M372.002 547.403C376.43 547.796 380.854 546.613 384.391 544.09C384.741 543.84 385.138 544.361 384.788 544.611C381.102 547.23 376.496 548.452 371.889 548.035C371.45 547.994 371.566 547.363 372.002 547.403V547.403Z" fill="white"/>
<path d="M397.143 521.346C397.552 522.054 398.141 522.656 398.86 523.098C399.578 523.541 400.403 523.809 401.259 523.879C401.699 523.914 401.583 524.545 401.146 524.511C400.2 524.429 399.29 524.131 398.495 523.644C397.7 523.158 397.045 522.496 396.586 521.718C396.536 521.648 396.517 521.563 396.532 521.48C396.547 521.397 396.595 521.322 396.666 521.271C396.74 521.223 396.832 521.203 396.921 521.217C397.011 521.231 397.091 521.277 397.143 521.346V521.346Z" fill="white"/>
<path d="M423.837 537.088C428.282 537.088 431.886 533.717 431.886 529.559C431.886 525.401 428.282 522.031 423.837 522.031C419.391 522.031 415.787 525.401 415.787 529.559C415.787 533.717 419.391 537.088 423.837 537.088Z" fill="#CCCCCC"/>
<path d="M452.227 518.608C456.673 518.608 460.277 515.238 460.277 511.08C460.277 506.922 456.673 503.551 452.227 503.551C447.782 503.551 444.178 506.922 444.178 511.08C444.178 515.238 447.782 518.608 452.227 518.608Z" fill="#CCCCCC"/>
<path d="M378.39 98.5773C331.041 110.226 278.579 117.312 225.234 119.252C217.417 119.651 209.58 119.601 201.769 119.103C184.603 117.753 169.899 112.706 153.524 109.949C145.651 108.627 136.882 107.66 128.957 106.232C130.788 104.107 132.652 102.008 134.55 99.9348C151.639 101.285 168.995 105.706 186.29 107.76C215.69 111.257 248.631 107.355 270.919 97.7315C281.732 93.0621 290.015 87.2342 300.79 82.5434C302.256 81.8397 303.843 81.3849 305.479 81.2001C308.89 80.9087 311.884 82.1951 314.324 83.3465C332.401 91.8823 358.648 98.8189 383.01 95.0024C384.826 96.3314 381.376 97.8453 378.39 98.5773Z" fill="white"/>
<path d="M486.195 128.616C486.418 128.578 486.641 128.548 486.863 128.512C485.927 127.97 485.046 127.349 484.23 126.657L486.195 128.616Z" fill="white"/>
<path d="M632.033 145.457C621.858 146.217 611.63 146.783 601.348 147.155C593.53 147.55 585.694 147.5 577.883 147.006C560.717 145.649 546.013 140.609 529.638 137.852C514.63 135.329 496.393 134.113 486.864 128.513C511.492 124.526 537.009 132.642 562.404 135.663C582.946 138.025 603.769 137.064 623.962 132.82C626.774 136.956 629.464 141.169 632.033 145.457Z" fill="white"/>
</g>
<defs>
<clipPath id="clip0">
<rect width="671" height="570" fill="white"/>
</clipPath>
</defs>
</svg>
